<svg width="522.1100219726562px" height="120.8px" xmlns="http://www.w3.org/2000/svg" viewBox="-11.055010986328114 14.600000000000001 522.1100219726562 120.8" style="background:#596886" preserveAspectRatio="xMidYMid"><defs><filter id="editing-hover" x="-100%" y="-100%" width="300%" height="300%"><feFlood flood-color="#052b4a" result="flood"></feFlood><feComposite operator="in" in2="SourceAlpha" in="flood" result="shadow"></feComposite><feOffset dx="-4" dy="-4" in="SourceGraphic" result="offset-1"></feOffset><feOffset dx="4" dy="4" in="shadow" result="offset-2"></feOffset><feMerge><feMergeNode in="offset-2"></feMergeNode><feMergeNode in="offset-1"></feMergeNode></feMerge></filter></defs><g filter="url(#editing-hover)"><g transform="translate(67.15503144264221, 102.93499946594238)"><path d="M42.62-26.56L42.62-26.56L42.62-26.56Q42.62 0.70 13.06 0.70L13.06 0.70L13.06 0.70Q8.32 0.70 0.51-0.45L0.51-0.45L7.68-38.27L7.68-38.27Q8.19-40.83 8.51-42.30L8.51-42.30L8.51-42.30Q18.24-43.01 22.56-43.01L22.56-43.01L22.56-43.01Q26.88-43.01 30.85-42.11L30.85-42.11L30.85-42.11Q34.82-41.22 37.44-39.23L37.44-39.23L37.44-39.23Q42.62-35.33 42.62-26.56ZM29.44-28.93L29.44-28.93L29.44-28.93Q29.44-38.46 22.59-38.46L22.59-38.46L21.95-38.46L21.95-38.46Q21.63-38.46 21.31-38.40L21.31-38.40L14.72-4.03L14.72-4.03Q14.98-3.90 15.23-3.90L15.23-3.90L15.74-3.90L15.74-3.90Q18.11-3.90 20.58-5.38L20.58-5.38L20.58-5.38Q23.04-6.85 24.96-9.86L24.96-9.86L24.96-9.86Q29.44-16.83 29.44-28.93ZM66.43-2.69L66.43-2.69L66.43-2.69Q63.36 1.28 55.74 1.28L55.74 1.28L55.74 1.28Q51.78 1.28 48.90-1.12L48.90-1.12L48.90-1.12Q46.02-3.52 46.02-6.98L46.02-6.98L46.02-6.98Q46.02-8.90 46.21-9.86L46.21-9.86L50.50-32.64L63.49-33.92L58.82-9.22L58.82-9.22Q58.56-7.81 58.56-6.98L58.56-6.98L58.56-6.98Q58.56-3.26 60.80-3.26L60.80-3.26L60.80-3.26Q63.30-3.26 65.09-6.66L65.09-6.66L65.09-6.66Q65.66-7.74 65.92-9.15L65.92-9.15L70.46-32.64L83.07-33.92L78.34-8.96L78.34-8.96Q78.14-8 78.14-6.98L78.14-6.98L78.14-6.98Q78.14-5.95 78.72-4.83L78.72-4.83L78.72-4.83Q79.30-3.71 81.15-3.46L81.15-3.46L81.15-3.46Q80.77-1.92 79.42-0.90L79.42-0.90L79.42-0.90Q76.61 1.28 73.57 1.28L73.57 1.28L73.57 1.28Q70.53 1.28 68.74 0.19L68.74 0.19L68.74 0.19Q66.94-0.90 66.43-2.69ZM117.70-26.62L117.70-26.62L117.70-26.62Q117.70-23.94 115.46-22.27L115.46-22.27L115.46-22.27Q113.22-20.61 109.57-20.61L109.57-20.61L109.57-20.61Q108.03-20.61 107.14-21.06L107.14-21.06L107.14-21.06Q107.84-22.72 108.06-24.80L108.06-24.80L108.06-24.80Q108.29-26.88 108.29-27.46L108.29-27.46L108.29-27.46Q108.29-30.14 106.43-30.14L106.43-30.14L106.43-30.14Q105.15-30.14 103.71-28.54L103.71-28.54L103.71-28.54Q102.27-26.94 101.06-24.45L101.06-24.45L101.06-24.45Q98.37-18.69 98.37-12.86L98.37-12.86L98.37-12.86Q98.37-9.66 99.58-8.22L99.58-8.22L99.58-8.22Q100.80-6.78 103.49-6.78L103.49-6.78L103.49-6.78Q107.20-6.78 110.14-9.86L110.14-9.86L110.14-9.86Q110.98-10.82 111.42-11.90L111.42-11.90L111.42-11.90Q113.86-10.62 113.86-7.10L113.86-7.10L113.86-7.10Q113.86-3.52 109.89-1.15L109.89-1.15L109.89-1.15Q105.79 1.28 99.26 1.28L99.26 1.28L99.26 1.28Q86.27 1.28 86.27-12.48L86.27-12.48L86.27-12.48Q86.27-22.53 91.97-28.29L91.97-28.29L91.97-28.29Q97.47-33.92 107.58-33.92L107.58-33.92L107.58-33.92Q117.70-33.92 117.70-26.62ZM139.20 0L132.16 0L139.84-42.24L153.60-42.24L163.58-13.18L168.90-42.24L176-42.18L168.19 0L153.54 0L144.32-27.97L139.20 0ZM182.14-26.75L182.14-26.75L182.14-26.75Q184.32-29.82 187.62-31.87L187.62-31.87L187.62-31.87Q190.91-33.92 194.94-33.92L194.94-33.92L194.94-33.92Q198.98-33.92 200.90-32.64L200.90-32.64L213.44-33.92L209.09-9.34L209.09-9.34Q206.85 3.20 202.11 8.13L202.11 8.13L202.11 8.13Q197.57 12.80 188.74 12.80L188.74 12.80L188.74 12.80Q182.02 12.80 178.18 10.69L178.18 10.69L178.18 10.69Q174.34 8.58 174.34 5.06L174.34 5.06L174.34 5.06Q174.34 2.43 176.32 0.93L176.32 0.93L176.32 0.93Q178.30-0.58 181.38-0.58L181.38-0.58L181.38-0.58Q184.06-0.58 186.11 0.64L186.11 0.64L186.11 0.64Q187.33 1.28 187.90 2.18L187.90 2.18L187.90 2.18Q186.43 3.46 186.43 5.57L186.43 5.57L186.43 5.57Q186.43 8.32 188.99 8.32L188.99 8.32L188.99 8.32Q193.28 8.32 195.71-1.79L195.71-1.79L195.71-1.79Q196.42-4.54 196.99-7.30L196.99-7.30L196.99-7.30Q194.11-3.78 187.58-3.78L187.58-3.78L187.58-3.78Q183.04-3.78 180.42-5.95L180.42-5.95L180.42-5.95Q177.79-8.13 177.79-13.25L177.79-13.25L177.79-13.25Q177.79-16.45 178.88-20.06L178.88-20.06L178.88-20.06Q179.97-23.68 182.14-26.75ZM190.46-13.06L190.46-13.06L190.46-13.06Q190.46-8.70 192.70-8.70L192.70-8.70L192.70-8.70Q194.24-8.70 195.71-10.37L195.71-10.37L195.71-10.37Q196.86-11.71 197.31-13.70L197.31-13.70L200.58-30.14L200.58-30.14Q200.26-30.21 199.94-30.34L199.94-30.34L199.94-30.34Q199.30-30.59 198.46-30.59L198.46-30.59L198.46-30.59Q194.56-30.59 192.26-24.19L192.26-24.19L192.26-24.19Q190.46-19.20 190.46-13.06ZM236.48-2.69L236.48-2.69L236.48-2.69Q233.41 1.28 225.79 1.28L225.79 1.28L225.79 1.28Q221.82 1.28 218.94-1.12L218.94-1.12L218.94-1.12Q216.06-3.52 216.06-6.98L216.06-6.98L216.06-6.98Q216.06-8.90 216.26-9.86L216.26-9.86L220.54-32.64L233.54-33.92L228.86-9.22L228.86-9.22Q228.61-7.81 228.61-6.98L228.61-6.98L228.61-6.98Q228.61-3.26 230.85-3.26L230.85-3.26L230.85-3.26Q233.34-3.26 235.14-6.66L235.14-6.66L235.14-6.66Q235.71-7.74 235.97-9.15L235.97-9.15L240.51-32.64L253.12-33.92L248.38-8.96L248.38-8.96Q248.19-8 248.19-6.98L248.19-6.98L248.19-6.98Q248.19-5.95 248.77-4.83L248.77-4.83L248.77-4.83Q249.34-3.71 251.20-3.46L251.20-3.46L251.20-3.46Q250.82-1.92 249.47-0.90L249.47-0.90L249.47-0.90Q246.66 1.28 243.62 1.28L243.62 1.28L243.62 1.28Q240.58 1.28 238.78 0.19L238.78 0.19L238.78 0.19Q236.99-0.90 236.48-2.69ZM276.93-7.23L276.93-7.23L276.93-7.23Q273.60-3.78 267.52-3.78L267.52-3.78L267.52-3.78Q259.90-3.78 258.30-9.34L258.30-9.34L258.30-9.34Q257.79-11.01 257.79-12.86L257.79-12.86L257.79-12.86Q257.79-14.72 258.18-16.64L258.18-16.64L261.18-32.64L274.18-33.92L270.66-15.30L270.66-15.30Q270.53-14.46 270.34-13.57L270.34-13.57L270.34-13.57Q270.14-12.67 270.14-11.74L270.14-11.74L270.14-11.74Q270.14-10.82 270.46-10.21L270.46-10.21L270.46-10.21Q270.78-9.60 271.23-9.22L271.23-9.22L271.23-9.22Q272-8.70 273.38-8.70L273.38-8.70L273.38-8.70Q274.75-8.70 275.94-10.37L275.94-10.37L275.94-10.37Q277.12-12.03 277.70-14.91L277.70-14.91L281.22-32.64L293.82-33.92L289.02-8.77L289.02-8.77Q286.66 3.52 281.79 8.38L281.79 8.38L281.79 8.38Q279.30 10.88 276.06 11.87L276.06 11.87L276.06 11.87Q272.83 12.86 268.67 12.86L268.67 12.86L268.67 12.86Q261.95 12.86 258.11 10.75L258.11 10.75L258.11 10.75Q254.27 8.64 254.27 5.12L254.27 5.12L254.27 5.12Q254.27 2.50 256.26 0.99L256.26 0.99L256.26 0.99Q258.24-0.51 261.31-0.51L261.31-0.51L261.31-0.51Q264-0.51 266.05 0.64L266.05 0.64L266.05 0.64Q267.26 1.34 267.84 2.24L267.84 2.24L267.84 2.24Q266.37 3.52 266.37 5.63L266.37 5.63L266.37 5.63Q266.37 8.45 268.93 8.45L268.93 8.45L268.93 8.45Q273.15 8.45 275.58-1.28L275.58-1.28L275.58-1.28Q276.29-4.16 276.93-7.23ZM322.05-10.82L322.05-10.82L322.05-10.82Q323.65-9.73 323.65-7.33L323.65-7.33L323.65-7.33Q323.65-4.93 322.43-3.39L322.43-3.39L322.43-3.39Q321.22-1.86 319.23-0.83L319.23-0.83L319.23-0.83Q315.14 1.28 310.72 1.28L310.72 1.28L310.72 1.28Q306.30 1.28 303.71 0.32L303.71 0.32L303.71 0.32Q301.12-0.64 299.39-2.43L299.39-2.43L299.39-2.43Q296-5.82 296-12.03L296-12.03L296-12.03Q296-21.70 301.25-27.58L301.25-27.58L301.25-27.58Q306.88-33.92 316.67-33.92L316.67-33.92L316.67-33.92Q322.75-33.92 325.76-31.36L325.76-31.36L325.76-31.36Q328-29.44 328-26.30L328-26.30L328-26.30Q328-15.04 308.54-15.04L308.54-15.04L308.54-15.04Q308.29-13.38 308.29-11.97L308.29-11.97L308.29-11.97Q308.29-9.02 309.60-7.90L309.60-7.90L309.60-7.90Q310.91-6.78 313.34-6.78L313.34-6.78L313.34-6.78Q315.78-6.78 318.37-7.90L318.37-7.90L318.37-7.90Q320.96-9.02 322.05-10.82ZM308.99-17.79L308.99-17.79L308.99-17.79Q313.54-17.79 316.16-20.61L316.16-20.61L316.16-20.61Q318.78-23.30 318.78-27.58L318.78-27.58L318.78-27.58Q318.78-29.06 318.24-29.86L318.24-29.86L318.24-29.86Q317.70-30.66 316.61-30.66L316.61-30.66L316.61-30.66Q315.52-30.66 314.59-30.24L314.59-30.24L314.59-30.24Q313.66-29.82 312.70-28.42L312.70-28.42L312.70-28.42Q310.34-25.22 308.99-17.79ZM357.25 1.28L357.25 1.28L357.25 1.28Q349.50 1.28 349.50-4.74L349.50-4.74L349.50-4.74Q349.57-6.40 350.08-9.22L350.08-9.22L351.23-15.10L351.23-15.10Q352.96-23.42 352.96-25.28L352.96-25.28L352.96-25.28Q352.96-28.99 350.78-28.99L350.78-28.99L350.78-28.99Q347.14-28.99 345.22-19.46L345.22-19.46L341.44 0L328.58 1.28L335.23-32.70L345.73-33.92L344.70-27.65L344.70-27.65Q347.71-33.92 356.93-33.92L356.93-33.92L356.93-33.92Q361.41-33.92 363.30-32.03L363.30-32.03L363.30-32.03Q365.18-30.14 365.18-25.92L365.18-25.92L365.18-25.92Q365.18-21.95 363.14-12.67L363.14-12.67L363.14-12.67Q362.18-8.51 362.18-6.94L362.18-6.94L362.18-6.94Q362.18-5.38 363.04-4.48L363.04-4.48L363.04-4.48Q363.90-3.58 365.18-3.46L365.18-3.46L365.18-3.46Q364.54-1.28 362.34 0L362.34 0L362.34 0Q360.13 1.28 357.25 1.28Z" fill="#ffd5af"></path></g></g><style>text {
  font-size: 64px;
  font-family: Arial Black;
  dominant-baseline: central;
  text-anchor: middle;
}</style></svg>